<svg width="31" height="33" viewBox="0 0 31 33" fill="none" xmlns="http://www.w3.org/2000/svg">
<g filter="url(#filter0_d)">
<path d="M12.7865 23.8338C13.049 23.7482 13.1924 23.4659 13.1068 23.2034C13.0212 22.9409 12.7389 22.7974 12.4764 22.8831L12.7865 23.8338ZM5.61069 19.4208L5.12213 19.3145L4.90945 20.2916L5.39801 20.3979L5.61069 19.4208ZM20.0107 27.7119L20.0244 28.2117L21.024 28.1841L21.0103 27.6843L20.0107 27.7119ZM19.421 18.9566L19.3571 18.4607C19.1625 18.4857 19.0006 18.6223 18.943 18.8099C18.8855 18.9975 18.943 19.2015 19.0901 19.3313L19.421 18.9566ZM25.895 11.8977L26.3948 11.884L26.3948 11.8823L25.895 11.8977ZM24.1794 8.28828L23.7123 8.11007C23.6383 8.30396 23.6918 8.52338 23.8467 8.66148L24.1794 8.28828ZM23.9813 4.61766L24.4269 4.39067C24.3604 4.2602 24.24 4.16543 24.0976 4.13137L23.9813 4.61766ZM19.8099 6.17586L19.7043 6.6646C19.834 6.69259 19.9695 6.66791 20.0809 6.596L19.8099 6.17586ZM12.2718 6.38345L12.0244 6.81791C12.1396 6.88355 12.2762 6.90072 12.4041 6.86564L12.2718 6.38345ZM8.02093 5.0572L7.87793 4.57808C7.73766 4.61995 7.62278 4.72118 7.5636 4.85507L8.02093 5.0572ZM8.02516 8.73315L8.37791 9.08751C8.52499 8.94109 8.56634 8.71904 8.48181 8.5295L8.02516 8.73315ZM6.51166 12.4612L7.01148 12.4474L7.01143 12.446L6.51166 12.4612ZM13.3635 19.1234L13.7152 19.4788C13.8538 19.3416 13.9 19.1363 13.8335 18.9529C13.7671 18.7696 13.6 18.6416 13.4057 18.6252L13.3635 19.1234ZM12.5813 21.5372L13.0811 21.5234C13.0807 21.5104 13.0799 21.4974 13.0785 21.4845L12.5813 21.5372ZM12.257 27.9254L12.2708 28.4252L13.2704 28.3977L13.2566 27.8979L12.257 27.9254ZM12.4764 22.8831C11.2517 23.2825 10.3978 23.2854 9.77395 23.1107C9.15382 22.9369 8.69846 22.5703 8.299 22.1077C8.09738 21.8742 7.91414 21.6211 7.73024 21.3575C7.55124 21.1009 7.36361 20.8223 7.17292 20.5728C6.79477 20.0781 6.31663 19.5745 5.61069 19.4208L5.39801 20.3979C5.73739 20.4718 6.02902 20.723 6.37847 21.1801C6.55158 21.4066 6.71721 21.6531 6.9101 21.9296C7.0981 22.1991 7.30538 22.487 7.54209 22.7612C8.01929 23.3139 8.63181 23.8292 9.50418 24.0736C10.3728 24.3169 11.4361 24.2742 12.7865 23.8338L12.4764 22.8831ZM20.8316 21.196C20.8158 20.6214 20.7742 20.1477 20.6103 19.7228C20.44 19.2814 20.1572 18.9396 19.752 18.5818L19.0901 19.3313C19.4292 19.6308 19.5862 19.8465 19.6773 20.0828C19.7749 20.3356 19.8165 20.6599 19.832 21.2236L20.8316 21.196ZM19.485 19.4525C21.1977 19.2317 22.9743 18.7817 24.3035 17.6384C25.6594 16.4721 26.4711 14.6557 26.3948 11.884L25.3952 11.9115C25.4654 14.4601 24.7261 15.9559 23.6514 16.8802C22.5499 17.8276 21.0163 18.2468 19.3571 18.4607L19.485 19.4525ZM26.3948 11.8823C26.3479 10.37 25.6674 8.94503 24.5122 7.91507L23.8467 8.66148C24.8046 9.51557 25.3572 10.685 25.3952 11.9132L26.3948 11.8823ZM24.6466 8.46649C24.8981 7.80708 25.0086 7.10667 24.9708 6.40613L23.9723 6.46002C24.0025 7.01956 23.9144 7.58027 23.7123 8.11007L24.6466 8.46649ZM24.9708 6.40613C24.933 5.7056 24.7478 5.02051 24.4269 4.39067L23.5358 4.84466C23.7941 5.3515 23.9421 5.90046 23.9723 6.46002L24.9708 6.40613ZM23.9813 4.61766C24.0976 4.13137 24.0972 4.13127 24.0967 4.13116C24.0966 4.13112 24.0961 4.13101 24.0958 4.13093C24.0951 4.13078 24.0945 4.13063 24.0938 4.13047C24.0925 4.13016 24.091 4.12983 24.0895 4.1295C24.0865 4.12882 24.0831 4.12809 24.0795 4.12733C24.0721 4.1258 24.0635 4.12411 24.0535 4.12235C24.0337 4.11883 24.0087 4.11501 23.9785 4.11149C23.918 4.10445 23.8369 4.09866 23.7347 4.09891C23.5301 4.09942 23.2425 4.1241 22.8675 4.21019C22.118 4.38224 21.0218 4.79889 19.5388 5.75572L20.0809 6.596C21.488 5.68817 22.4775 5.32573 23.0912 5.18484C23.3978 5.11446 23.6112 5.09922 23.7372 5.09891C23.8003 5.09876 23.8419 5.10235 23.8628 5.10478C23.8733 5.106 23.8786 5.10694 23.879 5.107C23.8791 5.10703 23.878 5.10684 23.8757 5.10635C23.8746 5.10611 23.8731 5.1058 23.8713 5.1054C23.8704 5.1052 23.8695 5.10498 23.8684 5.10474C23.8679 5.10462 23.8673 5.10449 23.8668 5.10436C23.8665 5.1043 23.8661 5.10419 23.8659 5.10416C23.8655 5.10406 23.8651 5.10395 23.9813 4.61766ZM19.9154 5.68712C17.3487 5.13295 14.6719 5.20666 12.1396 5.90126L12.4041 6.86564C14.7812 6.2136 17.2949 6.14438 19.7043 6.6646L19.9154 5.68712ZM12.5193 5.94898C10.9854 5.07528 9.86789 4.7196 9.11024 4.58906C8.73113 4.52374 8.4427 4.51491 8.23844 4.52567C8.13641 4.53104 8.0558 4.54129 7.99583 4.55165C7.96587 4.55683 7.94112 4.56202 7.92148 4.56664C7.91167 4.56894 7.90314 4.5711 7.89588 4.57303C7.89225 4.574 7.88894 4.57491 7.88595 4.57575C7.88446 4.57618 7.88304 4.57658 7.8817 4.57697C7.88104 4.57717 7.88039 4.57736 7.87976 4.57754C7.87944 4.57763 7.87899 4.57777 7.87883 4.57781C7.87838 4.57795 7.87793 4.57808 8.02093 5.0572C8.16392 5.53632 8.16348 5.53645 8.16305 5.53657C8.16291 5.53662 8.16248 5.53674 8.16221 5.53682C8.16166 5.53699 8.16112 5.53714 8.16061 5.53729C8.15958 5.53759 8.15863 5.53786 8.15775 5.53811C8.15599 5.53861 8.15454 5.539 8.15339 5.53931C8.15109 5.53992 8.15001 5.54017 8.15016 5.54014C8.15046 5.54007 8.15573 5.53884 8.1661 5.53705C8.18679 5.53347 8.2281 5.5276 8.29104 5.52429C8.41673 5.51766 8.6305 5.52114 8.94044 5.57454C9.56089 5.68144 10.5689 5.98888 12.0244 6.81791L12.5193 5.94898ZM7.5636 4.85507C7.27784 5.50161 7.13059 6.19586 7.1314 6.89741L8.1314 6.89626C8.13075 6.33589 8.24829 5.77962 8.47825 5.25933L7.5636 4.85507ZM7.1314 6.89741C7.1322 7.59897 7.28106 8.29224 7.56852 8.9368L8.48181 8.5295C8.25086 8.01163 8.13204 7.45662 8.1314 6.89626L7.1314 6.89741ZM7.67241 8.3788C7.12543 8.9233 6.69603 9.56524 6.41044 10.2687L7.337 10.6448C7.57083 10.0689 7.924 9.53937 8.37791 9.08751L7.67241 8.3788ZM6.41044 10.2687C6.12482 10.9722 5.98908 11.7225 6.01189 12.4763L7.01143 12.446C6.99287 11.8327 7.1032 11.2207 7.337 10.6448L6.41044 10.2687ZM6.01185 12.4749C6.0877 15.229 6.99886 16.981 8.41693 18.0628C9.80541 19.122 11.6025 19.4761 13.3213 19.6216L13.4057 18.6252C11.7327 18.4836 10.1766 18.1474 9.02346 17.2677C7.89994 16.4106 7.08108 14.975 7.01147 12.4474L6.01185 12.4749ZM13.0118 18.7679C12.1812 19.5898 11.9739 20.5498 12.084 21.5898L13.0785 21.4845C12.992 20.6685 13.1507 20.0373 13.7152 19.4788L13.0118 18.7679ZM12.0815 21.5509L12.257 27.9254L13.2566 27.8979L13.0811 21.5234L12.0815 21.5509ZM21.0103 27.6843L20.8316 21.196L19.832 21.2236L20.0107 27.7119L21.0103 27.6843Z" fill="#F2C94C"/>
</g>
<defs>
<filter id="filter0_d" x="0.909454" y="0.0989075" width="29.4903" height="32.3263" filterUnits="userSpaceOnUse" color-interpolation-filters="sRGB">
<feFlood flood-opacity="0" result="BackgroundImageFix"/>
<feColorMatrix in="SourceAlpha" type="matrix" values="0 0 0 0 0 0 0 0 0 0 0 0 0 0 0 0 0 0 127 0"/>
<feOffset/>
<feGaussianBlur stdDeviation="2"/>
<feColorMatrix type="matrix" values="0 0 0 0 0.94902 0 0 0 0 0.788235 0 0 0 0 0.298039 0 0 0 1 0"/>
<feBlend mode="normal" in2="BackgroundImageFix" result="effect1_dropShadow"/>
<feBlend mode="normal" in="SourceGraphic" in2="effect1_dropShadow" result="shape"/>
</filter>
</defs>
</svg>
