<svg width="38" height="35" viewBox="0 0 38 35" fill="none" xmlns="http://www.w3.org/2000/svg">
<g filter="url(#filter0_d)">
<path d="M25.8182 10.1371L27.7573 10.1461M13.2391 4.61307L24.8739 4.6668C29.1577 4.68659 32.6153 7.96548 32.5967 11.9904L32.5463 22.9221C32.5277 26.947 29.0399 30.1938 24.7561 30.1741L13.1213 30.1203C8.8375 30.1005 5.37986 26.8216 5.39845 22.7967L5.44894 11.865C5.46753 7.84009 8.95532 4.59328 13.2391 4.61307ZM18.9724 22.8594C15.7595 22.8446 13.1663 20.3854 13.1802 17.3667C13.1942 14.348 15.81 11.9129 19.0228 11.9277C22.2357 11.9426 24.8289 14.4017 24.815 17.4204C24.801 20.4391 22.1852 22.8742 18.9724 22.8594Z" stroke="#F2C94C"/>
</g>
<defs>
<filter id="filter0_d" x="0.391022" y="-0.338226" width="37.2132" height="35.4635" filterUnits="userSpaceOnUse" color-interpolation-filters="sRGB">
<feFlood flood-opacity="0" result="BackgroundImageFix"/>
<feColorMatrix in="SourceAlpha" type="matrix" values="0 0 0 0 0 0 0 0 0 0 0 0 0 0 0 0 0 0 127 0"/>
<feOffset/>
<feGaussianBlur stdDeviation="2"/>
<feColorMatrix type="matrix" values="0 0 0 0 0.94902 0 0 0 0 0.788235 0 0 0 0 0.298039 0 0 0 1 0"/>
<feBlend mode="normal" in2="BackgroundImageFix" result="effect1_dropShadow"/>
<feBlend mode="normal" in="SourceGraphic" in2="effect1_dropShadow" result="shape"/>
</filter>
</defs>
</svg>
