<svg width="38" height="36" viewBox="0 0 38 36" fill="none" xmlns="http://www.w3.org/2000/svg">
<g filter="url(#filter0_d)">
<path d="M13.0699 14.9876L12.9182 24.0962M24.5515 24.29L24.6273 19.7357C24.6609 17.7235 22.9519 16.0633 20.8103 16.0277C18.6687 15.992 16.9053 17.5943 16.8718 19.6065L16.796 24.1608L16.9477 15.0522M12.146 12.2389L14.0849 12.2712M7.4202 4.87129L30.6868 5.25888C31.7576 5.27672 32.6121 6.10679 32.5953 7.11289L32.2311 28.9735C32.2144 29.9796 31.3327 30.7807 30.2619 30.7629L6.99534 30.3753C5.92452 30.3574 5.07004 29.5274 5.0868 28.5213L5.45098 6.6607C5.46774 5.6546 6.34939 4.85345 7.4202 4.87129Z" stroke="#F2C94C"/>
</g>
<defs>
<filter id="filter0_d" x="0.0718689" y="-0.0880127" width="37.5384" height="35.8102" filterUnits="userSpaceOnUse" color-interpolation-filters="sRGB">
<feFlood flood-opacity="0" result="BackgroundImageFix"/>
<feColorMatrix in="SourceAlpha" type="matrix" values="0 0 0 0 0 0 0 0 0 0 0 0 0 0 0 0 0 0 127 0"/>
<feOffset/>
<feGaussianBlur stdDeviation="2"/>
<feColorMatrix type="matrix" values="0 0 0 0 0.94902 0 0 0 0 0.788235 0 0 0 0 0.298039 0 0 0 1 0"/>
<feBlend mode="normal" in2="BackgroundImageFix" result="effect1_dropShadow"/>
<feBlend mode="normal" in="SourceGraphic" in2="effect1_dropShadow" result="shape"/>
</filter>
</defs>
</svg>
